<svg fill="none" version="1.1" viewBox="0 0 187 46" xmlns="http://www.w3.org/2000/svg">
  <path d="m6.3096 18.131 2.6071 10.023c0.56962 2.1909 1.0954 4.2393 1.4679 6.2768h0.1205c0.4491-1.9937 1.0954-4.1078 1.7527-6.2768l3.2205-10.023h3.0124l3.0562 9.8588c0.734 2.3661 1.3036 4.4474 1.7527 6.4411h0.1534c0.3804-2.1588 0.8814-4.2945 1.5007-6.3973l2.8152-9.8587h3.5492l-6.3644 19.718h-3.2863l-3.0124-9.4096c-0.6901-2.1909-1.2597-4.1517-1.7527-6.474h-0.0219c-0.4939 2.1913-1.112 4.3528-1.8512 6.474l-3.1767 9.3768h-3.2863l-5.9262-19.729z" style="fill:#47585b"/>
  <path d="m52.339 27.836c0 7.2954-5.0499 10.472-9.8588 10.472-5.3456 0-9.4644-3.9107-9.4644-10.155 0-6.5725 4.3269-10.472 9.7821-10.472 5.7072 0 9.5411 4.1188 9.5411 10.155zm-15.654 0.1971c0 4.3269 2.4866 7.5803 5.9919 7.5803 3.5054 0 5.992-3.2205 5.992-7.6679 0-3.341-1.6651-7.5803-5.9043-7.5803-4.2393 0-6.0796 3.9216-6.0796 7.6679z" style="fill:#47585b"/>
  <path d="m56.874 24.287c0-2.3223 0-4.3817-0.1643-6.1563h3.1438l0.1205 3.8669h0.1644c0.3395-1.206 1.0524-2.2734 2.0365-3.0489 0.9841-0.7754 2.1886-1.219 3.4405-1.2671 0.3434-0.0037 0.6858 0.0368 1.0188 0.1205v3.3849c-0.3998-0.0842-0.8075-0.1246-1.2159-0.1205-2.5304 0-4.3269 1.9169-4.8089 4.6007-0.114 0.5665-0.1764 1.1421-0.1862 1.7198v10.516h-3.5492z" style="fill:#47585b"/>
  <path d="m70.381 8.9186h3.582v28.941h-3.582z" style="fill:#47585b"/>
  <path d="m97.032 8.9186v23.847c0 1.7527 0 3.7464 0.1643 5.0937h-3.2205l-0.1534-3.4286h-0.0876c-0.6395 1.2235-1.613 2.2404-2.8075 2.9327-1.1944 0.6922-2.5608 1.0313-3.9403 0.9779-4.7651 0-8.4347-4.0311-8.4347-10.023 0-6.5725 4.0311-10.604 8.84-10.604 1.1718-0.076 2.3426 0.1633 3.3906 0.6931 1.048 0.5297 1.9349 1.3306 2.5685 2.3193h0.0767v-11.809zm-3.582 17.242c5e-3 -0.5086-0.0501-1.016-0.1643-1.5116-0.2571-1.1851-0.9151-2.2453-1.863-3.0016s-2.1277-1.1625-3.3403-1.1501c-3.7134 0-5.9152 3.2863-5.9152 7.668 0 3.9873 1.9608 7.2955 5.8276 7.2955 1.2344-0.0039 2.4301-0.4313 3.3871-1.2109 0.9571-0.7796 1.6175-1.8641 1.8709-3.0722 0.1338-0.5225 0.2001-1.06 0.1972-1.5993z" style="fill:#47585b"/>
  <path d="m107.32 13.399v4.7322h5.138v2.6838h-5.138v10.636c0 2.4538 0.702 3.834 2.695 3.834 0.702 0.0287 1.405-0.0526 2.081-0.241l0.165 2.6838c-1.02 0.3765-2.101 0.5586-3.188 0.5368-0.719 0.0366-1.437-0.0835-2.105-0.3521-0.667-0.2686-1.269-0.6793-1.762-1.2034-1.018-1.0955-1.391-2.8043-1.391-5.1266v-10.768h-3.056v-2.6838h3.056v-3.6258z" style="fill:#ffba08"/>
  <path d="m116.5 24.287c0-2.3223 0-4.3817-0.164-6.1563h3.144l0.12 3.8669h0.164c0.34-1.206 1.053-2.2734 2.037-3.0489 0.984-0.7754 2.189-1.219 3.441-1.2671 0.343-0.0037 0.685 0.0368 1.018 0.1205v3.3849c-0.399-0.0842-0.807-0.1246-1.216-0.1205-2.53 0-4.381 1.9169-4.809 4.6007-0.104 0.5527-0.159 1.1136-0.164 1.676v10.516h-3.549z" style="fill:#ffba08"/>
  <path d="m133.99 12.588c0 0.5898-0.234 1.1554-0.651 1.5724s-0.983 0.6513-1.573 0.6513-1.155-0.2343-1.572-0.6513-0.651-0.9826-0.651-1.5724c-8e-3 -0.2969 0.045-0.5923 0.155-0.8682 0.11-0.2758 0.275-0.5264 0.486-0.7364 0.21-0.2101 0.46-0.3752 0.736-0.4854s0.571-0.1631 0.868-0.1556c0.293-0.0016 0.584 0.0558 0.855 0.1686 0.271 0.1129 0.516 0.279 0.721 0.4884 0.206 0.2094 0.367 0.4579 0.474 0.7308 0.108 0.2729 0.159 0.5646 0.152 0.8578zm-3.998 25.271v-19.718h3.593v19.718z" style="fill:#ffba08"/>
  <path d="m139.57 24.572c0-2.5304-0.088-4.5679-0.165-6.441h3.221l0.153 3.3848h0.077c0.71-1.2159 1.737-2.2154 2.973-2.891 1.235-0.6755 2.631-1.0015 4.038-0.943 4.765 0 8.358 4.0312 8.358 10.023 0 7.0983-4.382 10.604-8.972 10.604-1.193 0.0526-2.38-0.2053-3.443-0.7487-1.064-0.5434-1.969-1.3536-2.625-2.3514h-0.088v10.713h-3.527zm3.538 5.258c0.012 0.4931 0.067 0.9842 0.164 1.4679 0.301 1.1989 0.993 2.2629 1.968 3.0231 0.974 0.7601 2.175 1.1728 3.411 1.1724 3.79 0 5.992-3.1001 5.992-7.668 0-3.9544-2.082-7.3283-5.872-7.3283-1.266 0.0358-2.484 0.4909-3.463 1.2938-0.98 0.8029-1.665 1.9083-1.948 3.1426-0.151 0.4755-0.235 0.9694-0.252 1.4679z" style="fill:#ffba08"/>
  <path d="m1.5445 35.22c101.33 9.4206 160.92-17.089 160.92-17.089s-41.9 29.784-162.46 24.012" style="fill:#ffffff"/>
  <path d="m103.86 32.864c36.817-5.6414 56.962-14.624 56.962-14.624s-20.813 14.24-55.428 18.764" stroke-miterlimit="10" style="stroke-miterlimit:10;stroke:#ffba08"/>
  <path d="m8.0294 35.986c31.957 2.6054 64.108 1.558 95.828-3.122" stroke-miterlimit="10" style="stroke-miterlimit:10;stroke:#47585b"/>
  <path d="m177.32 22.491c-0.57-3.5711-1.096-6.945-1.654-10.461l-0.898 0.7339c-2.001 1.7641-4.301 3.1554-6.792 4.1078-0.392 0.1718-0.82 0.2437-1.246 0.2093-0.427-0.0344-0.838-0.1741-1.197-0.4065-1.544-0.9858-3.144-1.906-4.732-2.8481 0.238-0.3478 0.571-0.6197 0.96-0.7829 0.388-0.1632 0.816-0.2108 1.231-0.1372 1.251 0.1333 2.509 0.1955 3.768 0.1862 0.395-0.0062 0.778-0.1365 1.096-0.3724 4.381-3.7245 8.763-7.4635 13.145-11.217 1.138-1.0023 2.613-1.5382 4.129-1.5007 1.359 0 1.928 0.89824 1.348 2.1908-0.321 0.64804-0.764 1.2282-1.304 1.7089-1.282 1.1721-2.618 2.2785-3.954 3.3848-0.174 0.12755-0.317 0.29194-0.419 0.48135s-0.161 0.39912-0.173 0.61407c-0.285 3.7025-0.635 7.405-0.92 11.108-3e-3 0.3749-0.097 0.7436-0.274 1.0739-0.178 0.3303-0.433 0.6122-0.745 0.8211-0.475 0.3448-0.932 0.7141-1.369 1.1064z" style="fill:#47585b"/>
  <path d="m165.24 6.9249c1.019-0.87634 1.731-2.0156 3.374-1.7636 1.643 0.25195 3.286 0.2629 5.017 0.3834l0.559 0.07668c-1.249 1.0954-2.388 2.0156-3.538 2.9686-0.066 0.04763-0.141 0.08101-0.22 0.09799s-0.161 0.01719-0.24 6e-4c-1.534-0.48198-3.068-0.97492-4.59-1.4788-0.11-0.03287-0.186-0.14241-0.362-0.28481z" style="fill:#47585b"/>
  <defs>
    <clipPath>
      <rect width="186.7" height="45.922" fill="white"/>
    </clipPath>
  </defs>
</svg>
